HIERARCHY
ROOT root
{
	OFFSET 0.000000 0.000000 0.000000
	CHANNELS 6 Xposition Yposition Zposition Zrotation Yrotation Xrotation
	JOINT lhip
	{
		OFFSET 0.058581 -0.082280 -0.017664
		CHANNELS 3 Zrotation Yrotation Xrotation
		JOINT lknee
		{
			OFFSET 0.043451 -0.386469 0.008037
			CHANNELS 3 Zrotation Yrotation Xrotation
			JOINT lankle
			{
				OFFSET -0.014790 -0.426874 -0.037428
				CHANNELS 3 Zrotation Yrotation Xrotation
				JOINT ltoe
				{
					OFFSET 0.041054 -0.060286 0.122042
					CHANNELS 3 Zrotation Yrotation Xrotation
					End Site
					{
						OFFSET 0.000000 0.000000 0.000000
					}
				}
			}
		}
	}
	JOINT rhip
	{
		OFFSET -0.060310 -0.090513 -0.013543
		CHANNELS 3 Zrotation Yrotation Xrotation
		JOINT rknee
		{
			OFFSET -0.043257 -0.383688 -0.004843
			CHANNELS 3 Zrotation Yrotation Xrotation
			JOINT rankle
			{
				OFFSET 0.019056 -0.420046 -0.034562
				CHANNELS 3 Zrotation Yrotation Xrotation
				JOINT rtoe
				{
					OFFSET -0.034840 -0.062106 0.130323
					CHANNELS 3 Zrotation Yrotation Xrotation
					End Site
					{
						OFFSET 0.000000 0.000000 0.000000
					}
				}
			}
		}
	}
	JOINT lowerback
	{
		OFFSET 0.004439 0.124404 -0.038385
		CHANNELS 3 Zrotation Yrotation Xrotation
		JOINT upperback
		{
			OFFSET 0.004488 0.137956 0.026820
			CHANNELS 3 Zrotation Yrotation Xrotation
			JOINT chest
			{
				OFFSET -0.002265 0.056032 0.002855
				CHANNELS 3 Zrotation Yrotation Xrotation
				JOINT lowerneck
				{
					OFFSET -0.013390 0.211636 -0.033468
					CHANNELS 3 Zrotation Yrotation Xrotation
					JOINT upperneck
					{
						OFFSET 0.010113 0.088937 0.050410
						CHANNELS 3 Zrotation Yrotation Xrotation
						End Site
						{
							OFFSET 0.000000 0.000000 0.000000
						}
					}
				}
				JOINT lclavicle
				{
					OFFSET 0.071702 0.114000 -0.018898
					CHANNELS 3 Zrotation Yrotation Xrotation
					JOINT lshoulder
					{
						OFFSET 0.122921 0.045205 -0.019046
						CHANNELS 3 Zrotation Yrotation Xrotation
						JOINT lelbow
						{
							OFFSET 0.255332 -0.015649 -0.022946
							CHANNELS 3 Zrotation Yrotation Xrotation
							JOINT lwrist
							{
								OFFSET 0.265709 0.012698 -0.007375
								CHANNELS 3 Zrotation Yrotation Xrotation
								End Site
								{
									OFFSET 0.000000 0.000000 0.000000
								}
							}
						}
					}
				}
				JOINT rclavicle
				{
					OFFSET -0.082954 0.112472 -0.023707
					CHANNELS 3 Zrotation Yrotation Xrotation
					JOINT rshoulder
					{
						OFFSET -0.113228 0.046853 -0.008472
						CHANNELS 3 Zrotation Yrotation Xrotation
						JOINT relbow
						{
							OFFSET -0.260127 -0.014369 -0.031269
							CHANNELS 3 Zrotation Yrotation Xrotation
							JOINT rwrist
							{
								OFFSET -0.269108 0.006794 -0.006027
								CHANNELS 3 Zrotation Yrotation Xrotation
								End Site
								{
									OFFSET 0.000000 0.000000 0.000000
								}
							}
						}
					}
				}
			}
		}
	}
}
MOTION
Frames: 11
Frame Time: 0.033333
0.059820 0.455898 0.943831 95.017889 -5.113344 80.451718 -15.820639 -10.918184 -1.452302 -5.442554 -0.801262 26.643895 13.071076 23.674200 -19.521952 0.000000 -0.000000 0.000000 -8.917323 6.937276 -26.002051 4.630925 2.983246 67.462538 11.545502 -2.711177 4.708922 0.000000 -0.000000 0.000000 -3.568684 4.215439 6.398823 2.121086 -1.559668 13.082660 -3.632480 4.926284 -2.601135 -5.050529 9.813125 44.864026 12.858036 19.698657 28.797531 -21.562900 -0.783603 1.751770 -65.515131 -21.185060 21.854065 8.680696 -29.069567 -25.670901 -15.283396 -12.901301 -39.518114 23.944911 0.874000 8.514256 59.235040 12.845974 13.436679 -18.427695 44.381280 -24.289240 18.033006 9.106352 -15.836553 
0.060963 0.456851 0.944017 95.221636 -5.012427 80.524447 -15.604882 -10.720961 -1.551137 -5.644296 -0.950504 26.787342 12.667482 23.431850 -19.627934 0.000000 -0.000000 0.000000 -9.011487 6.998387 -25.752784 4.887496 2.904602 67.204282 11.937371 -2.938987 4.519404 0.000000 -0.000000 0.000000 -3.448309 3.871508 7.548368 1.961181 -1.438999 9.652495 -3.320726 4.983029 -0.781702 -5.205822 10.284523 45.309430 13.438069 19.908679 29.238003 -21.534252 0.179024 1.640987 -65.618039 -21.145224 21.422974 7.949246 -27.901439 -25.512043 -14.677765 -12.468161 -39.187909 24.134503 0.121847 8.654468 59.103056 12.784484 12.898836 -16.945767 43.598046 -22.902445 18.244233 8.900090 -15.377014 
0.061777 0.457890 0.943767 95.458375 -4.971910 80.550700 -15.638517 -10.798361 -1.443653 -5.623205 -1.065207 26.719875 12.455507 23.354731 -19.674550 0.000000 -0.000000 0.000000 -9.182217 6.849738 -25.583401 4.866551 2.721922 67.032757 12.125572 -2.799789 4.631653 0.000000 -0.000000 0.000000 -3.475655 3.752571 7.737865 1.964464 -1.515400 8.827221 -3.178371 5.092746 -0.209103 -5.072121 10.306975 45.353437 13.525430 19.817746 29.596697 -21.465610 0.603064 1.650495 -65.785135 -21.028685 21.224563 7.928757 -26.817862 -25.593589 -14.952053 -12.579323 -38.628416 24.404712 -0.159398 8.865246 58.878831 12.712316 12.366772 -16.746528 43.009077 -23.108314 18.533257 9.905026 -14.524260 
0.061727 0.458374 0.943648 95.444606 -4.900307 80.727046 -15.567492 -10.886298 -1.642654 -5.559428 -0.969199 26.714685 12.607693 23.298884 -19.622035 0.000000 -0.000000 0.000000 -9.106419 6.568941 -25.832377 4.847605 2.860694 67.083701 12.088061 -2.820859 4.739333 0.000000 -0.000000 0.000000 -3.466835 3.834465 7.417210 2.045619 -1.543542 9.098261 -3.102529 5.034940 -0.225104 -4.849986 10.205988 45.478915 12.913837 19.773728 29.240277 -21.313339 0.769285 1.131868 -66.213569 -20.626488 21.164520 8.342129 -25.715542 -26.519839 -14.790231 -12.178953 -38.254303 24.124286 -0.371844 8.407935 59.309963 12.199136 13.113886 -16.970341 41.922629 -23.008434 17.866805 9.130174 -15.393422 
0.061340 0.458734 0.943021 95.570630 -4.778361 80.873923 -15.502863 -11.039693 -1.855172 -5.510125 -1.144960 26.796343 12.659726 23.445318 -19.501084 0.000000 -0.000000 0.000000 -8.944616 6.294127 -26.047766 4.871244 2.991477 67.205305 12.144879 -2.985679 4.672524 0.000000 -0.000000 0.000000 -3.429198 3.795857 7.233202 2.082501 -1.683742 9.201270 -3.019386 5.090218 -0.113945 -4.863264 10.192110 45.320001 12.884107 19.748276 29.200336 -21.040144 0.738056 1.048697 -66.542195 -20.701986 20.803284 8.394576 -24.539170 -27.283689 -13.708209 -10.911065 -37.757857 24.093174 -0.480184 8.361165 59.331263 12.177753 12.837405 -16.670724 41.303051 -23.083145 17.085904 8.903697 -15.076787 
0.060633 0.459174 0.942685 95.601960 -4.781143 81.038463 -15.494168 -11.248365 -2.083442 -5.511262 -0.932978 26.824596 12.623707 23.408787 -19.577675 0.000000 -0.000000 0.000000 -8.873148 6.112409 -26.446954 4.900081 3.218901 67.485669 12.210271 -3.054946 4.682063 0.000000 -0.000000 0.000000 -3.469708 3.992371 7.421366 2.137668 -1.614715 8.420951 -2.894602 5.039330 0.260220 -4.693931 10.128214 45.402834 13.046201 19.670754 29.246082 -20.871901 0.920892 0.757943 -66.898538 -20.746906 20.848232 8.319827 -23.221995 -27.649423 -13.314906 -10.672610 -38.036581 24.104988 -0.909171 8.220913 59.447030 11.844500 12.794700 -16.826144 40.870269 -23.233897 16.944305 8.497341 -15.120286 
0.059741 0.459482 0.942487 95.629270 -4.743530 81.210475 -15.327123 -11.344610 -2.532899 -5.594654 -0.637445 27.247982 12.554589 23.182262 -19.723893 0.000000 -0.000000 0.000000 -8.711060 6.046090 -26.773067 4.914680 3.478506 67.722712 12.261382 -3.112762 4.669953 0.000000 -0.000000 0.000000 -3.490475 4.102873 7.728419 2.158069 -1.576285 7.626673 -2.808556 5.052117 0.497611 -4.121633 10.122991 45.234758 13.158344 19.219837 29.902460 -20.494835 1.314882 0.659531 -67.326679 -20.851215 20.790620 8.216680 -22.071163 -28.161581 -13.495395 -11.359811 -38.124969 24.297515 -1.404091 8.090134 59.663701 11.414284 12.743294 -17.251216 40.377840 -23.322318 17.736905 8.322137 -14.972903 
0.060216 0.460121 0.942447 95.870792 -4.699554 80.984322 -15.438676 -10.994454 -2.172355 -5.720228 -1.339613 27.184477 12.518202 23.427564 -19.798421 0.000000 -0.000000 0.000000 -8.797930 6.432315 -26.295916 4.944839 3.225917 67.534372 12.220399 -3.287207 4.547317 0.000000 -0.000000 0.000000 -3.463724 3.845820 7.991359 2.265706 -1.469930 7.523781 -2.848966 5.012224 0.748101 -4.320599 9.999878 45.408629 12.871361 19.406111 29.348721 -20.557905 2.052313 0.491246 -67.277559 -21.265129 20.732326 7.753866 -21.627877 -27.764802 -12.508521 -10.400720 -37.855436 24.277064 -1.946023 7.684373 59.723045 11.365541 12.749473 -16.726994 40.038623 -22.633507 16.464995 8.287505 -14.923227 
0.059839 0.460717 0.942179 95.906334 -4.651189 81.011397 -15.366241 -11.086676 -2.299217 -5.763432 -1.240290 27.299479 12.416985 23.420200 -19.777410 0.000000 -0.000000 0.000000 -8.736190 6.582818 -26.255156 4.979815 3.320517 67.462374 12.225961 -3.330109 4.400509 0.000000 -0.000000 0.000000 -3.370543 3.877542 8.162937 2.251084 -1.507069 7.440494 -2.817714 4.899194 0.534667 -4.107902 10.289070 45.232586 13.301796 19.139319 30.352178 -20.417262 1.792740 0.728104 -67.292722 -21.152435 20.380389 8.001519 -20.649829 -28.133307 -13.502971 -10.896628 -37.463319 24.289252 -2.034207 8.052706 59.717531 11.216698 12.487478 -16.703357 39.640267 -22.551198 17.614721 8.507939 -14.770481 
0.060107 0.461242 0.942113 96.075538 -4.647956 80.867665 -15.374092 -10.897262 -2.105832 -5.872049 -1.496566 27.290386 12.373678 23.425450 -19.921970 0.000000 -0.000000 0.000000 -8.706431 6.634347 -25.982383 5.015531 3.395692 67.430924 12.192015 -3.387419 4.360101 0.000000 -0.000000 0.000000 -3.454208 3.819319 8.284277 2.351890 -1.578239 7.579608 -2.715828 4.827017 0.442984 -4.523834 10.434609 45.675091 13.270698 19.492779 29.682427 -20.608463 1.845768 0.889117 -66.972881 -20.849105 20.084204 8.138775 -20.857450 -28.111295 -13.617948 -10.601599 -37.459415 24.329060 -2.145129 8.070601 59.524968 11.108856 12.372432 -16.405485 39.307800 -22.074741 17.792036 8.326593 -14.556726 
0.059902 0.461364 0.941859 96.177640 -4.671138 80.717605 -15.383070 -10.833055 -1.907016 -6.078697 -1.755197 27.158682 12.670425 23.505580 -19.778213 0.000000 -0.000000 0.000000 -8.705780 6.739398 -25.913318 5.338186 3.549635 67.584543 11.971189 -3.590030 4.204839 0.000000 -0.000000 0.000000 -3.577437 3.796306 8.409682 2.470722 -1.513128 7.450587 -2.674531 4.906077 0.794949 -4.386368 10.064210 45.315864 13.025008 19.443347 30.010947 -20.649777 2.586568 0.659461 -67.056666 -21.486337 20.372346 7.615045 -20.617960 -27.788119 -13.377749 -10.114024 -37.844454 24.288523 -2.627999 7.672046 59.512024 11.047238 12.831391 -16.161230 38.961555 -21.334250 17.529558 7.684218 -15.268561 
